<svg xmlns="http://www.w3.org/2000/svg" xmlns:xlink="http://www.w3.org/1999/xlink" width="1080" zoomAndPan="magnify" viewBox="0 0 810 809.999993" height="1080" preserveAspectRatio="xMidYMid meet" version="1.0"><defs><g/><clipPath id="73b47db06c"><path d="M 602 536 L 740 536 L 740 656 L 602 656 Z M 602 536 " clip-rule="nonzero"/></clipPath><clipPath id="3238d71934"><path d="M 595.699219 519.621094 L 763.558594 552.234375 L 740.242188 672.242188 L 572.382812 639.628906 Z M 595.699219 519.621094 " clip-rule="nonzero"/></clipPath><clipPath id="1012cfbbb8"><path d="M 595.699219 519.621094 L 763.558594 552.234375 L 740.242188 672.242188 L 572.382812 639.628906 Z M 595.699219 519.621094 " clip-rule="nonzero"/></clipPath><clipPath id="b4c62b7fb0"><path d="M 614 554 L 640 554 L 640 624 L 614 624 Z M 614 554 " clip-rule="nonzero"/></clipPath><clipPath id="8fac185f60"><path d="M 595.699219 519.621094 L 763.558594 552.234375 L 740.242188 672.242188 L 572.382812 639.628906 Z M 595.699219 519.621094 " clip-rule="nonzero"/></clipPath><clipPath id="05509e1901"><path d="M 595.699219 519.621094 L 763.558594 552.234375 L 740.242188 672.242188 L 572.382812 639.628906 Z M 595.699219 519.621094 " clip-rule="nonzero"/></clipPath><clipPath id="923aa9168d"><path d="M 652 198 L 783 198 L 783 542 L 652 542 Z M 652 198 " clip-rule="nonzero"/></clipPath><clipPath id="8be0de4ffb"><path d="M 715.941406 191.449219 L 789.363281 206.542969 L 718.929688 549.179688 L 645.507812 534.089844 Z M 715.941406 191.449219 " clip-rule="nonzero"/></clipPath><clipPath id="4a994d8052"><path d="M 752.492188 198.960938 C 762.1875 200.957031 770.691406 206.71875 776.136719 214.980469 C 781.582031 223.246094 783.523438 233.332031 781.53125 243.027344 L 726.199219 512.195312 C 724.207031 521.886719 718.445312 530.394531 710.183594 535.839844 C 701.917969 541.285156 691.828125 543.226562 682.136719 541.234375 C 672.441406 539.238281 663.9375 533.476562 658.488281 525.214844 C 653.042969 516.949219 651.105469 506.863281 653.097656 497.167969 L 708.425781 228 C 710.417969 218.308594 716.179688 209.800781 724.445312 204.355469 C 732.707031 198.910156 742.796875 196.96875 752.492188 198.960938 " clip-rule="nonzero"/></clipPath></defs><g fill="#af546a" fill-opacity="1"><g transform="translate(-9.301906, 628.777557)"><g><path d="M 332.40625 0 L 247.609375 0 L 247.609375 -200.046875 C 247.609375 -219.742188 243.125 -234.515625 234.15625 -244.359375 C 225.195312 -254.210938 211.363281 -259.140625 192.65625 -259.140625 C 171.570312 -259.140625 155.21875 -252.144531 143.59375 -238.15625 C 131.976562 -224.164062 126.171875 -206.335938 126.171875 -184.671875 L 126.171875 0 L 41.359375 0 L 41.359375 -434.359375 L 126.171875 -434.359375 L 126.171875 -281 L 127.34375 -281 C 146.65625 -313.894531 178.078125 -330.34375 221.609375 -330.34375 C 255.097656 -330.34375 281.9375 -320.539062 302.125 -300.9375 C 322.3125 -281.34375 332.40625 -255.296875 332.40625 -222.796875 Z M 332.40625 0 "/></g></g></g><g fill="#af546a" fill-opacity="1"><g transform="translate(299.534794, 628.777557)"><g><path d="M 317.9375 -117.3125 C 313.207031 -79.6875 298.132812 -49.300781 272.71875 -26.15625 C 247.3125 -3.007812 213.332031 8.5625 170.78125 8.5625 C 122.71875 8.5625 85.929688 -5.71875 60.421875 -34.28125 C 34.910156 -62.84375 22.15625 -102.039062 22.15625 -151.875 C 22.15625 -210.96875 35.597656 -255.484375 62.484375 -285.421875 C 89.378906 -315.367188 127.351562 -330.34375 176.40625 -330.34375 C 214.613281 -330.34375 247.015625 -319.898438 273.609375 -299.015625 C 300.203125 -278.140625 315.175781 -247.410156 318.53125 -206.828125 L 232.546875 -206.828125 C 229.390625 -224.753906 223.082031 -237.953125 213.625 -246.421875 C 204.175781 -254.898438 191.769531 -259.140625 176.40625 -259.140625 C 154.726562 -259.140625 138.128906 -250.566406 126.609375 -233.421875 C 115.085938 -216.285156 109.328125 -193.734375 109.328125 -165.765625 C 109.328125 -125.378906 115.1875 -97.847656 126.90625 -83.171875 C 138.625 -68.503906 154.53125 -61.171875 174.625 -61.171875 C 190.78125 -61.171875 204.078125 -66.734375 214.515625 -77.859375 C 224.953125 -88.984375 230.765625 -102.132812 231.953125 -117.3125 Z M 317.9375 -117.3125 "/></g></g></g><g clip-path="url(#73b47db06c)"><g clip-path="url(#3238d71934)"><g clip-path="url(#1012cfbbb8)"><path fill="#af546a" d="M 722.289062 553.640625 C 690.546875 538.113281 673.027344 570.03125 673.027344 570.03125 C 673.027344 570.03125 668.738281 533.875 633.492188 536.386719 C 599.898438 538.78125 579.324219 603.988281 652.207031 653.792969 C 654.769531 655.539062 657.941406 656.15625 660.972656 655.492188 C 747.203125 636.605469 752.539062 568.4375 722.289062 553.640625 Z M 722.289062 553.640625 " fill-opacity="1" fill-rule="nonzero"/></g></g></g><g clip-path="url(#b4c62b7fb0)"><g clip-path="url(#8fac185f60)"><g clip-path="url(#05509e1901)"><path fill="#af546a" d="M 632.1875 609.449219 C 633.378906 611.148438 632.96875 613.492188 631.269531 614.683594 C 630.398438 615.292969 629.359375 615.484375 628.394531 615.296875 C 627.472656 615.117188 626.617188 614.59375 626.035156 613.765625 C 614.320312 597.039062 613.507812 582.308594 614.890625 572.890625 C 616.414062 562.542969 620.832031 556.179688 621.019531 555.914062 C 622.214844 554.21875 624.558594 553.8125 626.253906 555.007812 C 627.945312 556.199219 628.351562 558.539062 627.167969 560.234375 C 627.105469 560.320312 623.460938 565.695312 622.273438 574.359375 C 620.675781 585.972656 624.011719 597.78125 632.1875 609.449219 Z M 636.644531 616.171875 C 634.515625 615.757812 632.457031 617.148438 632.042969 619.277344 C 631.628906 621.410156 633.019531 623.46875 635.148438 623.882812 C 637.277344 624.296875 639.335938 622.90625 639.75 620.777344 C 640.164062 618.648438 638.773438 616.585938 636.644531 616.171875 Z M 636.644531 616.171875 " fill-opacity="1" fill-rule="nonzero"/></g></g></g><g clip-path="url(#923aa9168d)"><g clip-path="url(#8be0de4ffb)"><g clip-path="url(#4a994d8052)"><path fill="#af546a" d="M 715.941406 191.449219 L 788.84375 206.433594 L 718.515625 548.554688 L 645.613281 533.566406 Z M 715.941406 191.449219 " fill-opacity="1" fill-rule="nonzero"/></g></g></g></svg>